<svg xmlns="http://www.w3.org/2000/svg" version="1.1" xmlns:xlink="http://www.w3.org/1999/xlink" xmlns:svgjs="http://svgjs.dev/svgjs" width="2000" height="2250" viewBox="0 0 2000 2250"><g transform="matrix(1,0,0,1,0.00014687500004129106,0)"><svg viewBox="0 0 320 360" data-background-color="#efefef" preserveAspectRatio="xMidYMid meet" height="2250" width="2000" xmlns="http://www.w3.org/2000/svg" xmlns:xlink="http://www.w3.org/1999/xlink"><g id="tight-bounds" transform="matrix(1,0,0,1,0.000023499999997511622,0)"><svg viewBox="0 0 320 360" height="360" width="320"><g><svg></svg></g><g><svg viewBox="0 0 320 360" height="360" width="320"><g><path transform="translate(-74.99272,-51.79039) scale(4.65793,4.65793)" d="M20.6 59.9l0.8 1-0.4-1.3c-0.1-0.6-0.8 0.1-0.4 0.3M21.5 59.3c0.3 0.5 0.6 1 0.6 1.5 0 0.7 0.6 1 1.1 1.2-0.7-0.8-1.1-3-1.7-2.7M59.9 16.9c1.7 0 3.3-0.2 5.1 0.2 4.4 1.1 8.1 3.3 10.6 6.4l7 11.2c0.3 2.8 0.9 5.9 0.8 9.3 0.7 0 0.6-1 1.4-1.2-0.8 2-1.2 4.5-1.4 7.4-0.5-1.6 0-4 0.1-5.3-0.7 1.1-1.1 0.3-1.1-0.2 0.1-0.8-0.3-0.7-0.6-1-1.1-1-1.8-2.1-2.6-3.8 0.5-1.3 0.6-3.2-1-4.2-0.5-0.3-1.1-0.8-1.4-1.6-0.4-1.1-1.1-2.4-0.9-4.1 0.1-0.5-1.5 1.1-2.4 0.4-3.9-2.7-7.8-5.8-12.5-8.4-2.5 0-4.3-0.9-5.2-2-0.8-1-0.2-2.3 1-2.4 0.7 0 1.5-0.2 2.1 0.2 0.1-0.4 0.5-0.9 1-0.9M50 14.6l0.2 0.1c1 0.2 1.5 1.6 2.6 1.1 0 0.7 0.1 1.4-0.1 1.9-0.3 0.8-1.2 0.8-1.9 0.8-6.7-0.4-10.6 2.4-14.7 4.8-1.1 0.7-2.3 1.2-3.2 2.1-4.3 4-9 7.7-10.1 15.1l-0.9 8.2c-0.1 0.9-1.1 1.8-0.9 2.9l0.7 4.9c-0.7-0.7-1.1 0.2-0.9 0.6 0.1 0.3 0.5 1.3 1.1 0.4 0.8 1.5 1.6 4.4 2.7 5.7 3.4 4 7.8 7.6 11.4 11.2 0.9-0.2 1.6-0.2 1.8-0.8 0.3 0.6-0.3 1.2-0.8 1.3 1.6 1 3.4 1.9 5.8 2.1 3.1 0.2 6 0.7 8.7 1.4 1.4-0.4 2.8-0.6 4.3-0.7 0.5 0 0.8-0.8 1.4-1l0.1-1c0.6 0.9 0.5-0.3 0.1-0.9 0.7 0.6 0.9 1.1 1.2 1.5 0-0.3 0.8-1.4 0.8-0.1l0.2-1.3c0.3-0.2 0.4 1.1 0.7 0.2 0.3-0.9 0.9-0.2 1.5-0.5-0.2 0.4-0.1 1.2 0.6 0.7l0.8-0.7c0.5 1.2 1.3 0.7 1.7 0.5 4.4-2.8 8.8-6.1 13-9.4l-0.1 1.3 0.5-1.6c0.5 0.5 0.9 0.1 1.1-0.2 0.6-1 1.4-2 2.7-2.9-1.6 4.3-3.5 7.7-5.9 10.5l-1 1.2c0 0.7-0.2 1.6-1 1.7-0.4 0.1-1.2-0.2-1.8 0.4-0.3 0.4 0.7 1.2-0.1 0.6-0.7-0.5-1.4 0-2.2 0.2-0.6 0.2 0.4 0.8 0.6 1.2 0.2 0.4 0.4 0.8 0.3 1.3l-1.1-1.2c-1.3 0.7-2.1 2-3.2 3-0.5 0.4-0.3 1.1-0.3 1.7-0.7 0-1.5-0.2-1.9 0.2-0.3 0.4-0.2 1-0.2 1.6-1-0.1-1.1-1.6-2-1.3-0.9 0.2-1.9 0.3-2.7 0.8 0.6 1.2-1 0.5-0.8 0.7-1.5-0.9-2.8-1.6-4.4-1-3.4-1.1-7.6-0.6-10.7-0.2 0-0.5 0.1-1-0.1-1.1-0.2 0.5-0.8 0.3-0.7 0.3-1.9-1.3-3.8-2.1-5.8-3.2-1.8 0.2-3.5-0.7-4-1.2-1.4-1.3-3-0.6-4.3-0.9-2.8-0.7-3.8-3.6-4.1-5.6-0.2-1-1-1.4-1.3-1.3-1.3-4.2-3.3-8-4.9-11.9-0.4-1-0.3-2-0.3-3.1 0.5 0.2 1 0.1 0.9-0.6-0.5-3.3-1.7-5.8-3-8.2 0.7-3.4 0.8-7.4 2.4-10.4 1.4-2.7 4-4.1 5.8-6.4 0.6-0.8 0.6-1.9 1.2-2.6 2-2 4-4.1 6.2-5.9 1-0.8 2.2 0 3.7-0.3 0.5-1.8 2.5-3.4 4.4-2.9 0.8 0.2 2.4-1.9 2.9-2.1 0.8-0.3 0.4 0.8 0.4 1.5 1.9-1.5 4.5-2.3 6.9-3.2" fill="#ffffff" fill-rule="nonzero" stroke="none" stroke-width="1" stroke-linecap="butt" stroke-linejoin="miter" stroke-miterlimit="10" stroke-dasharray="" stroke-dashoffset="0" font-family="none" font-weight="none" font-size="none" text-anchor="none" style="mix-blend-mode: normal" data-fill-palette-color="tertiary"></path></g><g transform="matrix(1,0,0,1,64,118.18090645301952)"><svg viewBox="0 0 192 123.63818709396097" height="123.63818709396097" width="192"><g><svg viewBox="0 0 192 123.63818709396097" height="123.63818709396097" width="192"><g><svg viewBox="0 0 192 123.63818709396097" height="123.63818709396097" width="192"><g transform="matrix(1,0,0,1,0,67.64781404943629)"><svg viewBox="0 0 192 55.990373044524674" height="55.990373044524674" width="192"><g id="textblocktransform"><svg viewBox="0 0 192 55.990373044524674" height="55.990373044524674" width="192" id="textblock"><g><svg viewBox="0 0 192 55.990373044524674" height="55.990373044524674" width="192"><g transform="matrix(1,0,0,1,0,0)"><svg width="192" viewBox="4 -35.01 121.72 35.5" height="55.990373044524674" data-palette-color="#d94e28"><path d="M23.71 0L20.56 0 20.56-15.99 7.15-15.99 7.15 0 4 0 4-35.01 7.15-35.01 7.15-18.99 20.56-18.99 20.56-35.01 23.71-35.01 23.71 0ZM46.92 0L45.92 0 44.26-2.49Q43.23-1.15 41.7-0.33 40.16 0.49 38.33 0.49L38.33 0.49 37.57 0.49Q36.06 0.49 34.71-0.09 33.37-0.66 32.37-1.66 31.37-2.66 30.8-4 30.22-5.35 30.22-6.86L30.22-6.86 30.22-7.1Q30.22-8.62 30.8-9.96 31.37-11.3 32.37-12.3 33.37-13.31 34.71-13.88 36.06-14.45 37.57-14.45L37.57-14.45 43.92-14.45 43.92-18.31Q43.92-19.21 43.58-20.01 43.23-20.8 42.65-21.39 42.06-21.97 41.27-22.31 40.48-22.66 39.57-22.66L39.57-22.66 37.81-22.66Q36.91-22.66 36.12-22.31 35.32-21.97 34.74-21.39 34.15-20.8 33.81-20.01 33.47-19.21 33.47-18.31L33.47-18.31 33.47-17.41 30.47-17.9 30.47-18.14Q30.47-19.65 31.04-21 31.61-22.34 32.61-23.34 33.62-24.34 34.96-24.91 36.3-25.49 37.81-25.49L37.81-25.49 39.57-25.49Q41.09-25.49 42.43-24.91 43.77-24.34 44.77-23.34 45.77-22.34 46.35-21 46.92-19.65 46.92-18.14L46.92-18.14 46.92 0ZM43.92-6.69L43.92-12.11 37.57-12.11Q36.67-12.11 35.87-11.77 35.08-11.43 34.49-10.83 33.91-10.23 33.57-9.44 33.23-8.64 33.23-7.74L33.23-7.74 33.23-6.69Q33.23-5.79 33.57-4.99 33.91-4.2 34.49-3.61 35.08-3.03 35.87-2.69 36.67-2.34 37.57-2.34L37.57-2.34 39.57-2.34Q40.48-2.34 41.27-2.69 42.06-3.03 42.65-3.61 43.23-4.2 43.58-4.99 43.92-5.79 43.92-6.69L43.92-6.69ZM82.32 0L79.32 0 79.32-18.31Q79.32-19.21 78.97-20.01 78.63-20.8 78.05-21.39 77.46-21.97 76.67-22.31 75.87-22.66 74.97-22.66L74.97-22.66 73.48-22.66Q72.58-22.66 71.78-22.31 70.99-21.97 70.39-21.39 69.79-20.8 69.45-20.01 69.11-19.21 69.11-18.31L69.11-18.31 69.11 0 66.13 0 66.13-18.31Q66.13-19.21 65.79-20.01 65.45-20.8 64.85-21.39 64.25-21.97 63.46-22.31 62.67-22.66 61.76-22.66L61.76-22.66 60.27-22.66Q59.37-22.66 58.58-22.31 57.78-21.97 57.2-21.39 56.61-20.8 56.27-20.01 55.93-19.21 55.93-18.31L55.93-18.31 55.93 0 52.92 0 52.92-25 53.93-25 55.56-22.46Q56.59-23.85 58.14-24.67 59.69-25.49 61.52-25.49L61.52-25.49 61.76-25.49Q63.89-25.49 65.6-24.44 67.3-23.39 68.23-21.66L68.23-21.66Q68.7-22.51 69.38-23.22 70.06-23.93 70.89-24.43 71.72-24.93 72.7-25.21 73.68-25.49 74.73-25.49L74.73-25.49 74.97-25.49Q76.48-25.49 77.83-24.91 79.17-24.34 80.17-23.34 81.17-22.34 81.75-21 82.32-19.65 82.32-18.14L82.32-18.14 82.32 0ZM104.02 0L87.32 0 87.32-1.34 99.92-22.14 87.81-22.14 87.81-25 104.02-25 104.02-23.66 91.42-2.86 104.02-2.86 104.02 0ZM125.72 0L124.72 0 123.06-2.49Q122.04-1.15 120.5-0.33 118.96 0.49 117.13 0.49L117.13 0.49 116.37 0.49Q114.86 0.49 113.52-0.09 112.17-0.66 111.17-1.66 110.17-2.66 109.6-4 109.02-5.35 109.02-6.86L109.02-6.86 109.02-7.1Q109.02-8.62 109.6-9.96 110.17-11.3 111.17-12.3 112.17-13.31 113.52-13.88 114.86-14.45 116.37-14.45L116.37-14.45 122.72-14.45 122.72-18.31Q122.72-19.21 122.38-20.01 122.04-20.8 121.45-21.39 120.86-21.97 120.07-22.31 119.28-22.66 118.37-22.66L118.37-22.66 116.62-22.66Q115.71-22.66 114.92-22.31 114.13-21.97 113.54-21.39 112.95-20.8 112.61-20.01 112.27-19.21 112.27-18.31L112.27-18.31 112.27-17.41 109.27-17.9 109.27-18.14Q109.27-19.65 109.84-21 110.41-22.34 111.42-23.34 112.42-24.34 113.76-24.91 115.1-25.49 116.62-25.49L116.62-25.49 118.37-25.49Q119.89-25.49 121.23-24.91 122.57-24.34 123.57-23.34 124.57-22.34 125.15-21 125.72-19.65 125.72-18.14L125.72-18.14 125.72 0ZM122.72-6.69L122.72-12.11 116.37-12.11Q115.47-12.11 114.68-11.77 113.88-11.43 113.3-10.83 112.71-10.23 112.37-9.44 112.03-8.64 112.03-7.74L112.03-7.74 112.03-6.69Q112.03-5.79 112.37-4.99 112.71-4.2 113.3-3.61 113.88-3.03 114.68-2.69 115.47-2.34 116.37-2.34L116.37-2.34 118.37-2.34Q119.28-2.34 120.07-2.69 120.86-3.03 121.45-3.61 122.04-4.2 122.38-4.99 122.72-5.79 122.72-6.69L122.72-6.69Z" opacity="1" transform="matrix(1,0,0,1,0,0)" fill="#ffffff" class="wordmark-text-0" data-fill-palette-color="primary" id="text-0"></path></svg></g></svg></g></svg></g></svg></g><g transform="matrix(1,0,0,1,36.672,0)"><svg viewBox="0 0 118.656 59.47747485328708" height="59.47747485328708" width="118.656"><g><svg xmlns="http://www.w3.org/2000/svg" xmlns:xlink="http://www.w3.org/1999/xlink" xml:space="preserve" style="shape-rendering:geometricPrecision;text-rendering:geometricPrecision;image-rendering:optimizeQuality;" viewBox="0 -0.00004110933377126161 14.727 7.382052084718504" x="0" y="0" fill-rule="evenodd" clip-rule="evenodd" id="icon-0" width="118.656" height="59.47747485328708" class="icon-icon-0" data-fill-palette-color="accent"><g fill="#f9744c" data-fill-palette-color="accent"><path class="" d="M1.757 3.091C1.444 3.535 1.46 4.421 1.34 5.041 1.187 5.825 0.63 6.244 0 6.575 0.188 5.805 0.348 5.033 0.412 4.262 0.49 3.31 0.352 3.372 1.179 2.687 2.338 1.727 4.218 0.946 7.027 0.397 9.483-0.009 12.077-0.056 14.727 0.046 13.838 1.855 10.995 2.006 7.526 1.627 5.715 1.647 4.03 1.139 1.757 3.091M10.087 5.872C6.192 7.911 2.285 3.588 0.922 6.56 3.026 4.729 6.002 9.743 10.087 5.872M12.576 3.325C8.086 6.045 3.073 2.534 1.669 5.185 5.081 3.95 9.434 7.937 12.576 3.324M13.41 1.847C9.466 3.607 3.367 0.445 1.845 4.087 4.95 2.277 10.29 5.523 13.41 1.846" fill="#ffffff" data-fill-palette-color="accent"></path></g></svg></g></svg></g><g></g></svg></g></svg></g></svg></g></svg></g><defs></defs></svg><rect width="320" height="360" fill="none" stroke="none" visibility="hidden"></rect></g></svg></g></svg>